<svg width="81" height="38" viewBox="0 0 81 38" fill="none" xmlns="http://www.w3.org/2000/svg">
<path d="M68.7252 30.6334C68.7252 31.8199 68.7252 32.9178 68.7252 34.0182C68.7252 36.0323 67.3641 37.3694 65.3145 37.3694C56.561 37.3694 47.8049 37.3694 39.0514 37.3694C37.0872 37.3694 35.7068 36.0395 35.7068 34.1282C35.7019 28.4255 35.7019 22.7252 35.7068 17.0224C35.7068 15.1351 37.0774 13.8051 39.0099 13.7931C39.8625 13.7884 40.7151 13.7931 41.6019 13.7931V15.7905C40.764 15.7905 39.9504 15.7882 39.1369 15.7905C38.2208 15.793 37.7468 16.2451 37.7468 17.1277C37.7468 22.7586 37.7468 28.3896 37.7468 34.0206C37.7468 34.9248 38.1939 35.3553 39.1222 35.3553C47.8392 35.3553 56.5585 35.3553 65.2757 35.3553C66.2379 35.3553 66.6653 34.9319 66.6653 33.9847C66.6653 28.3729 66.6653 22.7586 66.6653 17.1468C66.6653 16.1805 66.2677 15.793 65.2708 15.793C59.864 15.793 54.46 15.793 49.0534 15.793C48.836 15.793 48.6185 15.793 48.3596 15.793V13.7956H48.9288C54.4257 13.7956 59.9227 13.7956 65.4196 13.7956C67.3914 13.7956 68.7227 15.1184 68.7252 17.0655C68.7252 18.1324 68.7252 19.2016 68.7252 20.3164C70.3692 19.2925 71.9719 18.2951 73.5746 17.2976C75.17 16.3049 76.7727 15.3217 78.3633 14.3194C78.9443 13.9534 79.5356 13.8362 80.1615 14.1687C80.7868 14.5012 80.9993 15.049 80.9993 15.7307C80.992 22.3065 80.992 28.88 80.9993 35.4558C80.9993 36.1423 80.7747 36.6901 80.1463 37.0059C79.5502 37.3049 78.9643 37.2307 78.3949 36.8647C75.3704 34.92 72.3386 32.9872 69.3092 31.0496C69.1428 30.942 68.9868 30.8224 68.7252 30.6382V30.6334ZM78.9079 34.7477V16.422C78.8101 16.458 78.7567 16.4675 78.7148 16.4938C76.0594 18.142 73.3985 19.7853 70.7553 21.4502C70.6065 21.5435 70.5064 21.8234 70.5039 22.0171C70.4863 24.3326 70.5015 26.6482 70.4839 28.9661C70.4839 29.2938 70.5968 29.4756 70.8676 29.6478C73.384 31.2457 75.8931 32.8556 78.4046 34.4607C78.5491 34.554 78.7027 34.6329 78.9079 34.7502V34.7477Z" fill="white"/>
<path d="M33.112 21.5954V23.5928C32.8922 23.5928 32.6967 23.5928 32.5037 23.5928C27.0434 23.5928 21.5831 23.5928 16.1228 23.5928C14.0658 23.5928 12.7342 22.2939 12.7318 20.2941C12.7318 19.2822 12.7318 18.268 12.7318 17.1533C12.3385 17.3925 12.0208 17.5815 11.7057 17.7776C8.97193 19.4737 6.23809 21.1696 3.50916 22.8727C2.98878 23.1981 2.4513 23.3607 1.86007 23.1072C1.19311 22.8225 0.860852 22.3106 0.863295 21.593C0.865738 20.3467 0.863295 19.098 0.863295 17.8518C0.863295 12.4888 0.863295 7.12571 0.863295 1.7627C0.863295 0.54991 1.75258 -0.210769 2.85685 0.0667118C3.13048 0.136082 3.38701 0.29635 3.62887 0.449443C6.53859 2.30569 9.44339 4.16912 12.3507 6.03016C12.4386 6.08758 12.5339 6.13299 12.7318 6.24306V5.57088C12.7318 4.85804 12.7318 4.1452 12.7318 3.43237C12.7318 1.33212 14.0853 0.00451837 16.2474 0.00212629C19.3233 -0.00265786 22.3991 0.00212629 25.475 0.00212629C31.0256 0.00212629 36.5763 0.00212629 42.1271 0.00212629C44.4627 0.00212629 45.7868 1.29385 45.7868 3.5735C45.7868 9.0968 45.7868 14.6201 45.7868 20.1434C45.7868 22.0117 44.6337 23.4397 42.9552 23.5641C41.9438 23.6382 40.9202 23.5784 39.8599 23.5784V21.6002C40.6368 21.6002 41.4161 21.6002 42.193 21.6002C43.3242 21.5978 43.7297 21.1959 43.7297 20.0764C43.7297 14.5699 43.7297 9.06572 43.7297 3.55914C43.7297 2.43487 43.2899 2.0019 42.1539 2.0019C33.564 2.0019 24.9741 2.0019 16.3818 2.0019C15.2262 2.0019 14.7889 2.4229 14.7889 3.53522C14.7889 9.07768 14.7889 14.6177 14.7889 20.1602C14.7889 21.2246 15.1725 21.6026 16.2645 21.6026C21.6344 21.6026 27.0019 21.6026 32.3718 21.6026H33.1096L33.112 21.5954ZM2.92282 20.8036C3.06207 20.739 3.12804 20.7175 3.18911 20.6792C5.81543 19.0478 8.44418 17.4236 11.0559 15.7707C11.2342 15.6583 11.371 15.3473 11.3734 15.1272C11.3954 12.8476 11.3784 10.5655 11.3954 8.28591C11.3979 7.94145 11.2904 7.74051 10.9948 7.55389C8.42955 5.92969 5.87651 4.28633 3.3186 2.65255C3.20621 2.58078 3.07917 2.53294 2.92526 2.4564V20.8036H2.92282Z" fill="white"/>
<path d="M19.1492 18.4486C19.1492 18.4367 19.1465 18.427 19.1465 18.4177C19.1492 18.0422 19.1419 17.664 19.1563 17.2884C19.1933 16.3962 19.4277 15.5545 19.8652 14.7673C20.5859 13.4681 21.6531 12.5547 23.0626 12.021C23.1044 12.0045 23.1385 12.0066 23.1801 12.0256C23.9158 12.3677 24.69 12.5115 25.5015 12.4687C26.1191 12.4351 26.7078 12.2889 27.2649 12.0282C27.309 12.0066 27.3457 12.0066 27.3922 12.0235C28.6697 12.4996 29.6664 13.313 30.395 14.4443C30.8786 15.198 31.1666 16.0233 31.262 16.9104C31.2912 17.1762 31.2939 17.4441 31.301 17.7094C31.3083 17.9365 31.301 18.1637 31.301 18.3914C31.301 18.4105 31.301 18.427 31.301 18.4486H19.1492ZM21.2993 7.82502H21.2968C21.2649 5.75153 22.9385 4.00254 25.0934 3.93095C27.27 3.85932 29.0489 5.51664 29.1514 7.586C29.2586 9.74141 27.5507 11.5424 25.3742 11.6212C25.3238 11.623 25.2736 11.6239 25.2237 11.6239C23.0489 11.624 21.3205 9.90644 21.2993 7.82502Z" fill="#E6790C"/>
<path d="M49.0417 32.9066C49.0417 32.8947 49.0391 32.885 49.0391 32.8757C49.0417 32.5002 49.0344 32.122 49.0489 31.7464C49.0859 30.8542 49.3202 30.0125 49.7578 29.2253C50.4785 27.9261 51.5457 27.0127 52.9552 26.479C52.997 26.4625 53.031 26.4646 53.0727 26.4841C53.8083 26.8258 54.5826 26.9695 55.3941 26.9267C56.0117 26.8932 56.6004 26.7469 57.1575 26.4862C57.2016 26.4646 57.2383 26.4646 57.2848 26.4815C58.5623 26.9576 59.559 27.771 60.287 28.9023C60.7708 29.656 61.0591 30.4813 61.1546 31.3684C61.1838 31.6342 61.1859 31.9021 61.1932 32.1674C61.2009 32.3945 61.1932 32.6217 61.1932 32.8495C61.1932 32.8685 61.1932 32.885 61.1932 32.9066H49.0417ZM51.1918 22.283H51.1894C51.1575 20.2095 52.8305 18.4605 54.9854 18.389C57.1626 18.3173 58.9409 19.9747 59.0435 22.044C59.1512 24.1994 57.4433 26.0004 55.2668 26.0792C55.2164 26.081 55.1662 26.0819 55.1163 26.0819C52.9415 26.0821 51.213 24.3644 51.1918 22.283Z" fill="#E6790C"/>
</svg>
